<svg width="24" height="24" viewBox="0 0 24 24" fill="none" xmlns="http://www.w3.org/2000/svg">
    <defs>
        <linearGradient id="paint0_linear_1044_99" x1="11.5" y1="3" x2="11.5" y2="21.2692" gradientUnits="userSpaceOnUse">
            <stop stop-color="#7066CF"/>
            <stop offset="1" stop-color="#3D358B"/>
        </linearGradient>
    </defs>
<path fill-rule="evenodd" clip-rule="evenodd" d="M20.8799 5.39801C20.7759 5.26801 20.6184 5.19235 20.4519 5.19235H5.86502L5.45711 3.42483C5.3997 3.17616 5.17827 3 4.92307 3H2.54807C2.2454 3 2 3.2454 2 3.54811C2 3.85081 2.2454 4.09617 2.54807 4.09617H4.48707L7.25588 16.0944C7.31325 16.3431 7.53471 16.5192 7.78992 16.5192H18.7711C19.0738 16.5192 19.3192 16.2738 19.3192 15.9712C19.3192 15.6685 19.0738 15.4231 18.7711 15.4231H8.22595L7.80439 13.5962H18.8077C19.0641 13.5962 19.2862 13.4185 19.3424 13.1684L20.9866 5.86073C21.0232 5.69826 20.9839 5.52804 20.8799 5.39801ZM10.0384 17.25C8.93034 17.25 8.02881 18.1515 8.02881 19.2596C8.02881 20.3677 8.93031 21.2692 10.0384 21.2692C11.1465 21.2692 12.0481 20.3677 12.0481 19.2596C12.0481 18.1515 11.1466 17.25 10.0384 17.25ZM14.6057 19.2596C14.6057 18.1515 15.5072 17.25 16.6153 17.25C17.7235 17.25 18.625 18.1515 18.625 19.2596C18.625 20.3677 17.7234 21.2692 16.6153 21.2692C15.5072 21.2692 14.6057 20.3677 14.6057 19.2596Z" fill="url(#paint0_linear_1044_99)"/>
</svg>
