<svg width="24" height="24" viewBox="0 0 24 24" fill="none" xmlns="http://www.w3.org/2000/svg">
<path d="M20.8799 5.39801C20.7759 5.26801 20.6184 5.19235 20.4519 5.19235H5.86502L5.45711 3.42483C5.3997 3.17616 5.17827 3 4.92307 3H2.54807C2.2454 3 2 3.2454 2 3.54811C2 3.85081 2.2454 4.09617 2.54807 4.09617H4.48707L7.25588 16.0944C7.31325 16.3431 7.53471 16.5192 7.78992 16.5192H18.7711C19.0738 16.5192 19.3192 16.2738 19.3192 15.9712C19.3192 15.6685 19.0738 15.4231 18.7711 15.4231H8.22595L7.80439 13.5962H18.8077C19.0641 13.5962 19.2862 13.4185 19.3424 13.1684L20.9866 5.86072C21.0232 5.69826 20.9839 5.52804 20.8799 5.39801ZM18.3692 12.5H7.55141L6.11799 6.28848H19.7668L18.3692 12.5Z" fill="#C2C9D1"/>
<path d="M10.0389 17.25C8.93083 17.25 8.0293 18.1515 8.0293 19.2596C8.0293 20.3677 8.9308 21.2692 10.0389 21.2692C11.147 21.2692 12.0485 20.3677 12.0485 19.2596C12.0485 18.1515 11.147 17.25 10.0389 17.25ZM10.0389 20.1731C9.53523 20.1731 9.12547 19.7633 9.12547 19.2596C9.12547 18.7559 9.53523 18.3462 10.0389 18.3462C10.5426 18.3462 10.9524 18.7559 10.9524 19.2596C10.9524 19.7633 10.5426 20.1731 10.0389 20.1731Z" fill="#C2C9D1"/>
<path d="M16.6151 17.25C15.507 17.25 14.6055 18.1515 14.6055 19.2596C14.6055 20.3677 15.507 21.2692 16.6151 21.2692C17.7232 21.2692 18.6247 20.3677 18.6247 19.2596C18.6247 18.1515 17.7232 17.25 16.6151 17.25ZM16.6151 20.1731C16.1114 20.1731 15.7016 19.7633 15.7016 19.2597C15.7016 18.756 16.1114 18.3462 16.6151 18.3462C17.1188 18.3462 17.5285 18.756 17.5285 19.2597C17.5285 19.7633 17.1188 20.1731 16.6151 20.1731Z" fill="#C2C9D1"/>
</svg>
