<svg width="20" height="19" viewBox="0 0 20 19" fill="none" xmlns="http://www.w3.org/2000/svg">
<path d="M10 18.0001C9.35502 17.4281 8.62602 16.8331 7.85502 16.2001H7.84502C5.13002 13.9801 2.05302 11.4681 0.694023 8.45815C0.24754 7.49987 0.0109268 6.45727 1.1406e-05 5.40015C-0.00297039 3.94963 0.578794 2.55913 1.61383 1.54292C2.64887 0.526697 4.04981 -0.0294578 5.50002 0.000147715C6.68065 0.00201252 7.83586 0.343229 8.82802 0.983148C9.26399 1.26612 9.65844 1.6084 10 2.00015C10.3435 1.60994 10.7381 1.26786 11.173 0.983148C12.1648 0.343102 13.3197 0.00186627 14.5 0.000147715C15.9502 -0.0294578 17.3512 0.526697 18.3862 1.54292C19.4213 2.55913 20.003 3.94963 20 5.40015C19.9898 6.45896 19.7532 7.50334 19.306 8.46315C17.947 11.4731 14.871 13.9841 12.156 16.2001L12.146 16.2081C11.374 16.8371 10.646 17.4321 10.001 18.0081L10 18.0001ZM5.50002 2.00015C4.56853 1.98849 3.67009 2.34499 3.00002 2.99215C2.35441 3.62631 1.99358 4.49519 1.99994 5.40015C2.01135 6.17065 2.18585 6.93 2.51202 7.62815C3.15353 8.92685 4.01913 10.1022 5.06902 11.1001C6.06002 12.1001 7.20002 13.0681 8.18602 13.8821C8.45902 14.1071 8.73702 14.3341 9.01502 14.5611L9.19002 14.7041C9.45702 14.9221 9.73302 15.1481 10 15.3701L10.013 15.3581L10.019 15.3531H10.025L10.034 15.3461H10.039H10.044L10.062 15.3311L10.103 15.2981L10.11 15.2921L10.121 15.2841H10.127L10.136 15.2761L10.8 14.7311L10.974 14.5881C11.255 14.3591 11.533 14.1321 11.806 13.9071C12.792 13.0931 13.933 12.1261 14.924 11.1211C15.9741 10.1237 16.8397 8.94866 17.481 7.65015C17.8131 6.94595 17.9901 6.17865 18.0001 5.40015C18.0042 4.49799 17.6435 3.63244 17 3.00015C16.3312 2.35007 15.4326 1.99063 14.5 2.00015C13.3619 1.99048 12.274 2.46752 11.51 3.31115L10 5.05115L8.49002 3.31115C7.72609 2.46752 6.6381 1.99048 5.50002 2.00015Z" fill="#C2C9D1"/>
<path d="M10 18.0001C9.35502 17.4281 8.62602 16.8331 7.85502 16.2001H7.84502C5.13002 13.9801 2.05302 11.4681 0.694023 8.45815C0.24754 7.49987 0.0109268 6.45727 1.1406e-05 5.40015C-0.00297039 3.94963 0.578794 2.55913 1.61383 1.54292C2.64887 0.526697 4.04981 -0.0294578 5.50002 0.000147715C6.68065 0.00201252 7.83586 0.343229 8.82802 0.983148C9.26399 1.26612 9.65844 1.6084 10 2.00015C10.3435 1.60994 10.7381 1.26786 11.173 0.983148C12.1648 0.343102 13.3197 0.00186627 14.5 0.000147715C15.9502 -0.0294578 17.3512 0.526697 18.3862 1.54292C19.4213 2.55913 20.003 3.94963 20 5.40015C19.9898 6.45896 19.7532 7.50334 19.306 8.46315C17.947 11.4731 14.871 13.9841 12.156 16.2001L12.146 16.2081C11.374 16.8371 10.646 17.4321 10.001 18.0081L10 18.0001ZM5.50002 2.00015C4.56853 1.98849 3.67009 2.34499 3.00002 2.99215C2.35441 3.62631 1.99358 4.49519 1.99994 5.40015C2.01135 6.17065 2.18585 6.93 2.51202 7.62815C3.15353 8.92685 4.01913 10.1022 5.06902 11.1001C6.06002 12.1001 7.20002 13.0681 8.18602 13.8821C8.45902 14.1071 8.73702 14.3341 9.01502 14.5611L9.19002 14.7041C9.45702 14.9221 9.73302 15.1481 10 15.3701L10.013 15.3581L10.019 15.3531H10.025L10.034 15.3461H10.039H10.044L10.062 15.3311L10.103 15.2981L10.11 15.2921L10.121 15.2841H10.127L10.136 15.2761L10.8 14.7311L10.974 14.5881C11.255 14.3591 11.533 14.1321 11.806 13.9071C12.792 13.0931 13.933 12.1261 14.924 11.1211C15.9741 10.1237 16.8397 8.94866 17.481 7.65015C17.8131 6.94595 17.9901 6.17865 18.0001 5.40015C18.0042 4.49799 17.6435 3.63244 17 3.00015C16.3312 2.35007 15.4326 1.99063 14.5 2.00015C13.3619 1.99048 12.274 2.46752 11.51 3.31115L10 5.05115L8.49002 3.31115C7.72609 2.46752 6.6381 1.99048 5.50002 2.00015Z" fill="black" fill-opacity="0.5"/>
</svg>
