<svg width="19" height="19" viewBox="0 0 19 19" fill="none" xmlns="http://www.w3.org/2000/svg">
<g clip-path="url(#clip0_9677_21017)">
<path d="M1.5835 4.74992C1.5835 3.91007 1.91713 3.10461 2.51099 2.51075C3.10486 1.91688 3.91031 1.58325 4.75016 1.58325H14.2502C15.09 1.58325 15.8955 1.91688 16.4893 2.51075C17.0832 3.10461 17.4168 3.91007 17.4168 4.74992V14.2499C17.4168 15.0898 17.0832 15.8952 16.4893 16.4891C15.8955 17.083 15.09 17.4166 14.2502 17.4166H4.75016C3.91031 17.4166 3.10486 17.083 2.51099 16.4891C1.91713 15.8952 1.5835 15.0898 1.5835 14.2499V4.74992Z" stroke="#C2C9D1" stroke-width="2" stroke-linecap="round" stroke-linejoin="round"/>
<path d="M1.5835 4.74992C1.5835 3.91007 1.91713 3.10461 2.51099 2.51075C3.10486 1.91688 3.91031 1.58325 4.75016 1.58325H14.2502C15.09 1.58325 15.8955 1.91688 16.4893 2.51075C17.0832 3.10461 17.4168 3.91007 17.4168 4.74992V14.2499C17.4168 15.0898 17.0832 15.8952 16.4893 16.4891C15.8955 17.083 15.09 17.4166 14.2502 17.4166H4.75016C3.91031 17.4166 3.10486 17.083 2.51099 16.4891C1.91713 15.8952 1.5835 15.0898 1.5835 14.2499V4.74992Z" stroke="black" stroke-opacity="0.5" stroke-width="2" stroke-linecap="round" stroke-linejoin="round"/>
<path d="M6.72917 8.70833C7.82223 8.70833 8.70833 7.82223 8.70833 6.72917C8.70833 5.6361 7.82223 4.75 6.72917 4.75C5.6361 4.75 4.75 5.6361 4.75 6.72917C4.75 7.82223 5.6361 8.70833 6.72917 8.70833Z" stroke="#C2C9D1" stroke-width="2" stroke-linecap="round" stroke-linejoin="round"/>
<path d="M6.72917 8.70833C7.82223 8.70833 8.70833 7.82223 8.70833 6.72917C8.70833 5.6361 7.82223 4.75 6.72917 4.75C5.6361 4.75 4.75 5.6361 4.75 6.72917C4.75 7.82223 5.6361 8.70833 6.72917 8.70833Z" stroke="black" stroke-opacity="0.5" stroke-width="2" stroke-linecap="round" stroke-linejoin="round"/>
<path d="M11.4998 9.99153L4.75 17.4166H14.3553C15.1672 17.4166 15.9459 17.094 16.52 16.5199C17.0941 15.9458 17.4167 15.1671 17.4167 14.3552V14.2499C17.4167 13.881 17.2781 13.7393 17.0288 13.4662L13.8383 9.98678C13.6896 9.82458 13.5088 9.69516 13.3073 9.60676C13.1058 9.51837 12.888 9.47295 12.668 9.47339C12.448 9.47384 12.2304 9.52015 12.0293 9.60936C11.8281 9.69857 11.6478 9.82873 11.4998 9.99153V9.99153Z" stroke="#C2C9D1" stroke-width="2" stroke-linecap="round" stroke-linejoin="round"/>
<path d="M11.4998 9.99153L4.75 17.4166H14.3553C15.1672 17.4166 15.9459 17.094 16.52 16.5199C17.0941 15.9458 17.4167 15.1671 17.4167 14.3552V14.2499C17.4167 13.881 17.2781 13.7393 17.0288 13.4662L13.8383 9.98678C13.6896 9.82458 13.5088 9.69516 13.3073 9.60676C13.1058 9.51837 12.888 9.47295 12.668 9.47339C12.448 9.47384 12.2304 9.52015 12.0293 9.60936C11.8281 9.69857 11.6478 9.82873 11.4998 9.99153V9.99153Z" stroke="black" stroke-opacity="0.5" stroke-width="2" stroke-linecap="round" stroke-linejoin="round"/>
</g>
<defs>
<clipPath id="clip0_9677_21017">
<rect width="19" height="19" fill="white"/>
</clipPath>
</defs>
</svg>
